<svg id="Captcha-Logo-color" xmlns="http://www.w3.org/2000/svg" width="90.688" height="30.72" viewBox="0 0 90.688 30.72">
  <g id="c" transform="translate(0 0)">
    <path id="Pfad_27" data-name="Pfad 27" d="M453.787,50.449l4.162-4.32a6.136,6.136,0,1,0,.347,8.664Z" transform="translate(-438.533 -35.275)" fill="#61b180"/>
    <path id="Pfad_28" data-name="Pfad 28" d="M454.113,50.11l3.836-3.981a6.132,6.132,0,0,0-8.535,8.8Z" transform="translate(-438.533 -35.275)" fill="#e0ad41"/>
    <path id="Pfad_29" data-name="Pfad 29" d="M449.506,49.755a6.128,6.128,0,0,0-.093,8.685l4.386-4.5Z" transform="translate(-438.533 -38.784)" fill="#ca3d5c"/>
    <g id="Gruppe_4843" data-name="Gruppe 4843" transform="translate(0)">
      <path id="Pfad_26" data-name="Pfad 26" d="M446.822,42.889a14.928,14.928,0,0,1-11.182,4.59c-8.416,0-15.419-5.061-15.419-15.36s7-15.36,15.419-15.36a13.777,13.777,0,0,1,10.476,4.3l-4.531,4.767a8.813,8.813,0,0,0-5.827-2.3c-4.825,0-8.357,3.531-8.357,8.592,0,5.532,3.767,8.474,8.239,8.474A8.723,8.723,0,0,0,442,38.181Z" transform="translate(-420.221 -16.759)" fill="#68c1eb"/>
    </g>
  </g>
  <path id="Pfad_2883" data-name="Pfad 2883" d="M5.315-50.4a3.992,3.992,0,0,1-1.438-.256,3.564,3.564,0,0,1-1.152-.7A3.205,3.205,0,0,1,1.967-52.4a3.168,3.168,0,0,1-.276-1.32,3.093,3.093,0,0,1,.335-1.438,3.45,3.45,0,0,1,.926-1.123,4.272,4.272,0,0,1,1.408-.729,6.007,6.007,0,0,1,1.8-.256,4.854,4.854,0,0,1,2.088.394v-.315a1.333,1.333,0,0,0-.423-1.083,2.125,2.125,0,0,0-1.369-.355,4.549,4.549,0,0,0-1.635.286,8.046,8.046,0,0,0-1.576.837L2.164-59.83a8.43,8.43,0,0,1,4.668-1.32,5.863,5.863,0,0,1,3.821,1.1,4.037,4.037,0,0,1,1.339,3.309v2.009a1.071,1.071,0,0,0,.2.739,1.083,1.083,0,0,0,.709.246v3.151q-.512.1-.965.148a7.559,7.559,0,0,1-.807.049A2.66,2.66,0,0,1,9.6-50.76a1.7,1.7,0,0,1-.679-1.073l-.079-.374a4.767,4.767,0,0,1-1.6,1.349A4.184,4.184,0,0,1,5.315-50.4Zm1.123-2.679a2.353,2.353,0,0,0,.689-.108,2.521,2.521,0,0,0,.63-.286,1.614,1.614,0,0,0,.355-.345.641.641,0,0,0,.138-.384v-.768a5.332,5.332,0,0,0-.729-.2,3.651,3.651,0,0,0-.709-.079,1.87,1.87,0,0,0-1.142.335,1.014,1.014,0,0,0-.453.847.868.868,0,0,0,.345.709A1.359,1.359,0,0,0,6.438-53.074ZM21.13-50.4a4.071,4.071,0,0,1-1.95-.443,3.071,3.071,0,0,1-1.28-1.29V-46.4H14.158V-60.952h3.25V-59.4a3.886,3.886,0,0,1,1.359-1.3,4.015,4.015,0,0,1,1.989-.453,4.553,4.553,0,0,1,1.91.4,4.5,4.5,0,0,1,1.517,1.113,5.272,5.272,0,0,1,.995,1.694,6.082,6.082,0,0,1,.364,2.127,6.72,6.72,0,0,1-.335,2.157,5.485,5.485,0,0,1-.926,1.723,4.211,4.211,0,0,1-1.4,1.132A3.864,3.864,0,0,1,21.13-50.4Zm-1.3-3.151a1.633,1.633,0,0,0,.758-.177,1.772,1.772,0,0,0,.591-.492,2.586,2.586,0,0,0,.394-.729,2.616,2.616,0,0,0,.148-.886,2.193,2.193,0,0,0-.561-1.576A1.956,1.956,0,0,0,19.673-58,2.116,2.116,0,0,0,17.9-56.934v1.792A2.875,2.875,0,0,0,18.708-54,1.709,1.709,0,0,0,19.83-53.547Zm14.181,2.383a11.511,11.511,0,0,1-1.684.561,7.176,7.176,0,0,1-1.763.226,4.5,4.5,0,0,1-1.2-.158,2.607,2.607,0,0,1-.995-.512,2.443,2.443,0,0,1-.67-.926,3.589,3.589,0,0,1-.246-1.418v-4.747h-1.28v-2.816h1.28V-64.2h3.742v3.25h2.029v2.816H31.194v3.427a.97.97,0,0,0,.217.719.82.82,0,0,0,.591.207,2.633,2.633,0,0,0,.63-.089,4.333,4.333,0,0,0,.709-.246Zm.394-4.609a5.64,5.64,0,0,1,.374-2.038,5,5,0,0,1,1.093-1.713,5.287,5.287,0,0,1,1.782-1.182,6.306,6.306,0,0,1,2.442-.443,5.9,5.9,0,0,1,3.161.788,5.069,5.069,0,0,1,1.9,2.029l-3.644,1.1A1.663,1.663,0,0,0,40.077-58a1.7,1.7,0,0,0-1.3.581,2.349,2.349,0,0,0-.532,1.645,2.349,2.349,0,0,0,.532,1.645,1.7,1.7,0,0,0,1.3.581,1.663,1.663,0,0,0,1.438-.768l3.644,1.1a5.069,5.069,0,0,1-1.9,2.029A5.9,5.9,0,0,1,40.1-50.4a6.306,6.306,0,0,1-2.442-.443,5.287,5.287,0,0,1-1.782-1.182,5,5,0,0,1-1.093-1.713A5.64,5.64,0,0,1,34.4-55.772Zm22.334,5.18H53v-5.83a1.526,1.526,0,0,0-.345-1.113,1.163,1.163,0,0,0-.857-.345,1.086,1.086,0,0,0-.423.108,2.445,2.445,0,0,0-.492.3,2.571,2.571,0,0,0-.463.463,2.56,2.56,0,0,0-.355.611v5.81H46.32V-64.97h3.742v5.554a3.625,3.625,0,0,1,1.438-1.29,4.386,4.386,0,0,1,1.989-.443,3.464,3.464,0,0,1,1.733.374,2.656,2.656,0,0,1,.985.936,3.31,3.31,0,0,1,.433,1.211,8.174,8.174,0,0,1,.1,1.221Zm4.865.2a3.991,3.991,0,0,1-1.438-.256,3.564,3.564,0,0,1-1.152-.7,3.205,3.205,0,0,1-.758-1.054,3.168,3.168,0,0,1-.276-1.32,3.093,3.093,0,0,1,.335-1.438,3.45,3.45,0,0,1,.926-1.123,4.272,4.272,0,0,1,1.408-.729,6.007,6.007,0,0,1,1.8-.256,4.854,4.854,0,0,1,2.088.394v-.315a1.333,1.333,0,0,0-.423-1.083,2.125,2.125,0,0,0-1.369-.355,4.549,4.549,0,0,0-1.635.286,8.046,8.046,0,0,0-1.576.837L58.452-59.83a8.43,8.43,0,0,1,4.668-1.32,5.863,5.863,0,0,1,3.821,1.1,4.037,4.037,0,0,1,1.339,3.309v2.009a1.071,1.071,0,0,0,.2.739,1.083,1.083,0,0,0,.709.246v3.151q-.512.1-.965.148a7.559,7.559,0,0,1-.808.049,2.66,2.66,0,0,1-1.526-.364,1.7,1.7,0,0,1-.679-1.073l-.079-.374a4.766,4.766,0,0,1-1.6,1.349A4.184,4.184,0,0,1,61.6-50.4Zm1.123-2.679a2.353,2.353,0,0,0,.689-.108,2.521,2.521,0,0,0,.63-.286,1.614,1.614,0,0,0,.355-.345.641.641,0,0,0,.138-.384v-.768a5.332,5.332,0,0,0-.729-.2,3.651,3.651,0,0,0-.709-.079,1.87,1.87,0,0,0-1.142.335,1.014,1.014,0,0,0-.453.847.868.868,0,0,0,.345.709A1.359,1.359,0,0,0,62.726-53.074Z" transform="translate(21.502 72.058)" fill="#1a1a1a"/>
</svg>
